# File created by Blade
# Date/Time:  Tue Jan 27 19:58:31 2015
# Frame Rate: 120.000 fps
#------------------------------------------------------
:FULLY-SPECIFIED
:DEGREES
3388
root 6.629550 34.194379 1.915833 22.854845 -23.381068 -34.461564
Spine 6.974978 24.201948 9.194270
Head -19.662427 -0.679021 18.220495
LeftShoulder -11.689190 -6.473506 32.825604
LeftArm -4.119732 -16.599064 -78.087143
LeftForeArm -43.313795 -0.000000 136.782415
LeftHand 6.542616 -0.000000 -41.117218
LeftHandThumb1 -26.253704 0.000000 33.147579
RightShoulder -7.620698 1.013792 -16.905203
RightArm 33.060164 -49.304841 77.382668
RightForeArm -26.238201 -0.000000 13.665245
RightHand 16.443245 -0.000000 11.092145
RightHandThumb1 -24.326973 -0.000000 -32.862282
LeftUpLeg -1.400324 12.663222 20.463749
LeftLeg -4.698371 -0.000000 0.000000
LeftFoot -18.847679 25.953522 -15.494181
LeftToeBase 18.371930 -0.000000 -0.000000
RightUpLeg -34.266623 -57.174655 -10.698570
RightLeg 105.494586 -0.000000 -0.000000
RightFoot 28.988151 -26.441852 22.583400
RightToeBase 16.752482 -0.000000 -0.000000
3389
root 6.616391 34.194404 1.913111 22.827564 -23.341586 -34.417107
Spine 6.986324 24.156596 9.190846
Head -19.739027 -0.711484 18.213389
LeftShoulder -11.735460 -6.158658 32.752200
LeftArm -3.736543 -16.623642 -78.221254
LeftForeArm -43.281979 -0.000000 136.706772
LeftHand 6.514300 -0.000000 -41.153320
LeftHandThumb1 -26.253704 0.000000 33.147579
RightShoulder -7.639815 1.038213 -16.941051
RightArm 33.047172 -49.273067 77.434187
RightForeArm -26.099942 0.000000 13.695470
RightHand 16.507187 -0.000000 11.191756
RightHandThumb1 -24.326973 -0.000000 -32.862282
LeftUpLeg -1.408862 12.642630 20.462063
LeftLeg -4.698446 -0.000000 0.000000
LeftFoot -18.844511 25.906231 -15.528292
LeftToeBase 18.358068 -0.000000 -0.000000
RightUpLeg -34.150419 -57.008426 -10.863634
RightLeg 105.472746 -0.000000 -0.000000
RightFoot 29.118179 -26.396619 22.344536
RightToeBase 16.228633 -0.000000 -0.000000
3390
root 6.604904 34.192383 1.911453 22.790629 -23.330662 -34.339024
Spine 6.986027 24.133382 9.138790
Head -19.793053 -0.760777 18.204913
LeftShoulder -11.760721 -6.057029 32.739819
LeftArm -3.578258 -16.664255 -78.311370
LeftForeArm -43.250997 -0.000000 136.621022
LeftHand 6.513859 0.000000 -41.297052
LeftHandThumb1 -26.253704 0.000000 33.147579
RightShoulder -7.652772 1.029100 -16.962732
RightArm 33.114350 -49.290174 77.404878
RightForeArm -26.002145 -0.000000 13.716003
RightHand 16.395632 -0.000000 11.336564
RightHandThumb1 -24.326973 -0.000000 -32.862282
LeftUpLeg -1.417307 12.611678 20.415965
LeftLeg -4.688210 -0.000000 0.000000
LeftFoot -18.828535 25.889878 -15.537720
LeftToeBase 18.357390 -0.000000 -0.000000
RightUpLeg -34.030363 -56.829205 -11.078284
RightLeg 105.450606 -0.000000 -0.000000
RightFoot 29.118374 -26.398016 22.323617
RightToeBase 16.274977 -0.000000 -0.000000
3391
root 6.593981 34.189932 1.908485 22.771202 -23.327980 -34.268610
Spine 6.961855 24.036641 9.088764
Head -19.796811 -0.743116 18.155310
LeftShoulder -11.821603 -6.118372 32.737142
LeftArm -3.698778 -16.652029 -78.255601
LeftForeArm -43.215045 -0.000000 136.567814
LeftHand 6.568206 -0.000000 -41.215275
LeftHandThumb1 -26.253704 0.000000 33.147579
RightShoulder -7.565914 1.047685 -17.009517
RightArm 33.127209 -49.286159 77.440546
RightForeArm -25.984588 -0.000000 13.747857
RightHand 16.386234 -0.000000 11.395425
RightHandThumb1 -24.326973 -0.000000 -32.862282
LeftUpLeg -1.440907 12.629839 20.361370
LeftLeg -4.670424 -0.000000 0.000000
LeftFoot -18.824880 25.841417 -15.527868
LeftToeBase 18.555028 -0.000000 -0.000000
RightUpLeg -33.967914 -56.639191 -11.235278
RightLeg 105.427779 -0.000000 -0.000000
RightFoot 29.073705 -26.396323 22.389467
RightToeBase 16.515120 -0.000000 -0.000000
3392
root 6.579943 34.188280 1.904890 22.740527 -23.321360 -34.197309
Spine 6.953573 23.951575 9.033376
Head -19.824677 -0.738531 18.137300
LeftShoulder -11.889469 -6.151122 32.740394
LeftArm -3.758820 -16.655769 -78.207023
LeftForeArm -43.217364 -0.000000 136.487694
LeftHand 6.624785 -0.000000 -41.199633
LeftHandThumb1 -26.253704 0.000000 33.147579
RightShoulder -7.490526 1.099632 -17.052578
RightArm 33.074609 -49.271690 77.522259
RightForeArm -25.951224 -0.000000 13.789880
RightHand 16.575856 -0.000000 11.362194
RightHandThumb1 -24.326973 -0.000000 -32.862282
LeftUpLeg -1.447739 12.636941 20.322148
LeftLeg -4.672326 -0.000000 0.000000
LeftFoot -18.715169 25.841084 -15.392956
LeftToeBase 18.239862 -0.000000 -0.000000
RightUpLeg -33.869046 -56.449850 -11.393813
RightLeg 105.392673 -0.000000 -0.000000
RightFoot 29.083279 -26.451913 22.413844
RightToeBase 16.360508 -0.000000 -0.000000
3393
root 6.564267 34.187027 1.900878 22.688966 -23.303533 -34.118323
Spine 6.972194 23.926373 8.988860
Head -19.877265 -0.792080 18.131648
LeftShoulder -11.840699 -6.234120 32.760499
LeftArm -3.840361 -16.789639 -78.209750
LeftForeArm -43.278464 -0.000000 136.419307
LeftHand 6.590962 -0.000000 -41.408954
LeftHandThumb1 -26.253704 0.000000 33.147579
RightShoulder -7.472830 1.108234 -17.088812
RightArm 33.096933 -49.300458 77.519698
RightForeArm -25.878896 0.000000 13.839098
RightHand 16.618341 0.000000 11.398585
RightHandThumb1 -24.326973 -0.000000 -32.862282
LeftUpLeg -1.446444 12.636788 20.289375
LeftLeg -4.667706 -0.000000 0.000000
LeftFoot -18.774747 25.774358 -15.548485
LeftToeBase 18.407617 -0.000000 -0.000000
RightUpLeg -33.722955 -56.287970 -11.583507
RightLeg 105.340757 -0.000000 -0.000000
RightFoot 29.185004 -26.454892 22.333155
RightToeBase 16.220600 -0.000000 -0.000000
